<svg id="SvgjsSvg1006" width="1576.500015258789" height="913.0000228881836" xmlns="http://www.w3.org/2000/svg" version="1.1" xmlns:xlink="http://www.w3.org/1999/xlink" xmlns:svgjs="http://svgjs.com/svgjs"><defs id="SvgjsDefs1007"><pattern id="SvgjsPattern1010" x="0" y="0" width="120" height="95" patternUnits="userSpaceOnUse"><image id="SvgjsImage1011" xlink:href="https://iconsapi.com/5ee262bfe4b0b788a932a9eb.svg" width="120" height="95" preserveAspectRatio="none" crossOrigin="anonymous" x="0" y="0"></image></pattern><marker id="SvgjsMarker1030" markerWidth="16" markerHeight="12" refX="16" refY="6" viewBox="0 0 16 12" orient="auto" markerUnits="userSpaceOnUse" stroke-dasharray="0,0"><path id="SvgjsPath1031" d="M0,2 L14,6 L0,11 L0,2" fill="#323232" stroke="#323232" stroke-width="2"></path></marker><marker id="SvgjsMarker1034" markerWidth="16" markerHeight="12" refX="16" refY="6" viewBox="0 0 16 12" orient="auto" markerUnits="userSpaceOnUse" stroke-dasharray="0,0"><path id="SvgjsPath1035" d="M0,2 L14,6 L0,11 L0,2" fill="#323232" stroke="#323232" stroke-width="2"></path></marker><marker id="SvgjsMarker1038" markerWidth="16" markerHeight="12" refX="16" refY="6" viewBox="0 0 16 12" orient="auto" markerUnits="userSpaceOnUse" stroke-dasharray="0,0"><path id="SvgjsPath1039" d="M0,2 L14,6 L0,11 L0,2" fill="#323232" stroke="#323232" stroke-width="2"></path></marker><marker id="SvgjsMarker1042" markerWidth="16" markerHeight="12" refX="16" refY="6" viewBox="0 0 16 12" orient="auto" markerUnits="userSpaceOnUse" stroke-dasharray="0,0"><path id="SvgjsPath1043" d="M0,2 L14,6 L0,11 L0,2" fill="#323232" stroke="#323232" stroke-width="2"></path></marker><marker id="SvgjsMarker1062" markerWidth="16" markerHeight="12" refX="16" refY="6" viewBox="0 0 16 12" orient="auto" markerUnits="userSpaceOnUse" stroke-dasharray="0,0"><path id="SvgjsPath1063" d="M0,2 L14,6 L0,11 L0,2" fill="#323232" stroke="#323232" stroke-width="2"></path></marker><marker id="SvgjsMarker1066" markerWidth="16" markerHeight="12" refX="16" refY="6" viewBox="0 0 16 12" orient="auto" markerUnits="userSpaceOnUse" stroke-dasharray="0,0"><path id="SvgjsPath1067" d="M0,2 L14,6 L0,11 L0,2" fill="#323232" stroke="#323232" stroke-width="2"></path></marker><marker id="SvgjsMarker1070" markerWidth="16" markerHeight="12" refX="16" refY="6" viewBox="0 0 16 12" orient="auto" markerUnits="userSpaceOnUse" stroke-dasharray="0,0"><path id="SvgjsPath1071" d="M0,2 L14,6 L0,11 L0,2" fill="#323232" stroke="#323232" stroke-width="2"></path></marker><marker id="SvgjsMarker1074" markerWidth="16" markerHeight="12" refX="16" refY="6" viewBox="0 0 16 12" orient="auto" markerUnits="userSpaceOnUse" stroke-dasharray="0,0"><path id="SvgjsPath1075" d="M0,2 L14,6 L0,11 L0,2" fill="#323232" stroke="#323232" stroke-width="2"></path></marker><marker id="SvgjsMarker1086" markerWidth="16" markerHeight="12" refX="0" refY="6" viewBox="0 0 16 12" orient="auto" markerUnits="userSpaceOnUse" stroke-dasharray="0,0"><path id="SvgjsPath1087" d="M15,1.5 L2,6 L15,10.5" fill="#323232" stroke="#323232" stroke-width="2"></path></marker><marker id="SvgjsMarker1090" markerWidth="16" markerHeight="12" refX="0" refY="6" viewBox="0 0 16 12" orient="auto" markerUnits="userSpaceOnUse" stroke-dasharray="0,0"><path id="SvgjsPath1091" d="M15,1.5 L2,6 L15,10.5" fill="#323232" stroke="#323232" stroke-width="2"></path></marker><marker id="SvgjsMarker1102" markerWidth="16" markerHeight="12" refX="16" refY="6" viewBox="0 0 16 12" orient="auto" markerUnits="userSpaceOnUse" stroke-dasharray="0,0"><path id="SvgjsPath1103" d="M0,2 L14,6 L0,11 L0,2" fill="#323232" stroke="#323232" stroke-width="2"></path></marker></defs><g id="SvgjsG1008" transform="translate(102.5,193.5)"><path id="SvgjsPath1009" d="M 0 0L 120 0L 120 95L 0 95Z" stroke="none" fill="url(#SvgjsPattern1010)"></path></g><g id="SvgjsG1012" transform="translate(454.5,206)"><path id="SvgjsPath1013" d="M 0 4Q 0 0 4 0L 248 0Q 252 0 252 4L 252 66Q 252 70 248 70L 4 70Q 0 70 0 66Z" stroke="rgba(50,50,50,1)" stroke-width="2" fill-opacity="1" fill="#ff9999"></path><g id="SvgjsG1014"><text id="SvgjsText1015" font-family="微软雅黑" text-anchor="middle" font-size="20px" width="232px" fill="#323232" font-weight="400" align="middle" anchor="middle" family="微软雅黑" size="20px" weight="400" font-style="" opacity="1" y="7" transform="rotate(0)"><tspan id="SvgjsTspan1016" dy="25" x="126"><tspan id="SvgjsTspan1017" style="text-decoration:;">前端控制器</tspan></tspan><tspan id="SvgjsTspan1018" dy="25" x="126"><tspan id="SvgjsTspan1019" style="text-decoration:;">DispatcherServlet</tspan></tspan></text></g></g><g id="SvgjsG1020" transform="translate(956.5,206)"><path id="SvgjsPath1021" d="M 0 4Q 0 0 4 0L 248 0Q 252 0 252 4L 252 66Q 252 70 248 70L 4 70Q 0 70 0 66Z" stroke="rgba(50,50,50,1)" stroke-width="2" fill-opacity="1" fill="#ffe6cc"></path><g id="SvgjsG1022"><text id="SvgjsText1023" font-family="微软雅黑" text-anchor="middle" font-size="20px" width="232px" fill="#323232" font-weight="400" align="middle" anchor="middle" family="微软雅黑" size="20px" weight="400" font-style="" opacity="1" y="7" transform="rotate(0)"><tspan id="SvgjsTspan1024" dy="25" x="126"><tspan id="SvgjsTspan1025" style="text-decoration:;">处理器映射器</tspan></tspan><tspan id="SvgjsTspan1026" dy="25" x="126"><tspan id="SvgjsTspan1027" style="text-decoration:;">HandlerMapping</tspan></tspan></text></g></g><g id="SvgjsG1028"><path id="SvgjsPath1029" d="M221.5 221L334 221L334 221L446.5 221" stroke="#323232" stroke-width="2" fill="none" marker-end="url(#SvgjsMarker1030)"></path></g><g id="SvgjsG1032"><path id="SvgjsPath1033" d="M454.5 257L339.5 257L339.5 257L224.5 257" stroke="#323232" stroke-width="2" fill="none" marker-end="url(#SvgjsMarker1034)"></path></g><g id="SvgjsG1036"><path id="SvgjsPath1037" d="M705.5 219L831 219L831 219L956.5 219" stroke="#323232" stroke-width="2" fill="none" marker-end="url(#SvgjsMarker1038)"></path></g><g id="SvgjsG1040"><path id="SvgjsPath1041" d="M956.5 257L831.5 257L831.5 257L706.5 257" stroke="#323232" stroke-width="2" fill="none" marker-end="url(#SvgjsMarker1042)"></path></g><g id="SvgjsG1044" transform="translate(956.5,598)"><path id="SvgjsPath1045" d="M 0 4Q 0 0 4 0L 248 0Q 252 0 252 4L 252 66Q 252 70 248 70L 4 70Q 0 70 0 66Z" stroke="rgba(50,50,50,1)" stroke-width="2" fill-opacity="1" fill="#ffffcc"></path><g id="SvgjsG1046"><text id="SvgjsText1047" font-family="微软雅黑" text-anchor="middle" font-size="20px" width="232px" fill="#323232" font-weight="400" align="middle" anchor="middle" family="微软雅黑" size="20px" weight="400" font-style="" opacity="1" y="7" transform="rotate(0)"><tspan id="SvgjsTspan1048" dy="25" x="126"><tspan id="SvgjsTspan1049" style="text-decoration:;">处理器适配器</tspan></tspan><tspan id="SvgjsTspan1050" dy="25" x="126"><tspan id="SvgjsTspan1051" style="text-decoration:;">HandlerAdapter</tspan></tspan></text></g></g><g id="SvgjsG1052" transform="translate(956.5,423)"><path id="SvgjsPath1053" d="M 0 4Q 0 0 4 0L 248 0Q 252 0 252 4L 252 66Q 252 70 248 70L 4 70Q 0 70 0 66Z" stroke="rgba(50,50,50,1)" stroke-width="2" fill-opacity="1" fill="#ccffcc"></path><g id="SvgjsG1054"><text id="SvgjsText1055" font-family="微软雅黑" text-anchor="middle" font-size="20px" width="232px" fill="#323232" font-weight="400" align="middle" anchor="middle" family="微软雅黑" size="20px" weight="400" font-style="" opacity="1" y="7" transform="rotate(0)"><tspan id="SvgjsTspan1056" dy="25" x="126"><tspan id="SvgjsTspan1057" style="text-decoration:;">处理器</tspan></tspan><tspan id="SvgjsTspan1058" dy="25" x="126"><tspan id="SvgjsTspan1059" style="text-decoration:;">Handler（即Controller）</tspan></tspan></text></g></g><g id="SvgjsG1060"><path id="SvgjsPath1061" d="M634.5 273L956.5 613" stroke="#323232" stroke-width="2" fill="none" marker-end="url(#SvgjsMarker1062)"></path></g><g id="SvgjsG1064"><path id="SvgjsPath1065" d="M956.5 653L607.5 276" stroke="#323232" stroke-width="2" fill="none" marker-end="url(#SvgjsMarker1066)"></path></g><g id="SvgjsG1068"><path id="SvgjsPath1069" d="M1033.5 598L1032.5 493" stroke="#323232" stroke-width="2" fill="none" marker-end="url(#SvgjsMarker1070)"></path></g><g id="SvgjsG1072"><path id="SvgjsPath1073" d="M1135.5 493L1135.5 589" stroke="#323232" stroke-width="2" fill="none" marker-end="url(#SvgjsMarker1074)"></path></g><g id="SvgjsG1076" transform="translate(382.5,598)"><path id="SvgjsPath1077" d="M 0 4Q 0 0 4 0L 248 0Q 252 0 252 4L 252 66Q 252 70 248 70L 4 70Q 0 70 0 66Z" stroke="rgba(50,50,50,1)" stroke-width="2" fill-opacity="1" fill="#ccccff"></path><g id="SvgjsG1078"><text id="SvgjsText1079" font-family="微软雅黑" text-anchor="middle" font-size="20px" width="232px" fill="#323232" font-weight="400" align="middle" anchor="middle" family="微软雅黑" size="20px" weight="400" font-style="" opacity="1" y="7" transform="rotate(0)"><tspan id="SvgjsTspan1080" dy="25" x="126"><tspan id="SvgjsTspan1081" style="text-decoration:;">视图解析器</tspan></tspan><tspan id="SvgjsTspan1082" dy="25" x="126"><tspan id="SvgjsTspan1083" style="text-decoration:;">ViewResolver</tspan></tspan></text></g></g><g id="SvgjsG1084"><path id="SvgjsPath1085" d="M530.5 274L532.5 598" stroke="#323232" stroke-width="2" fill="none" marker-start="url(#SvgjsMarker1086)"></path></g><g id="SvgjsG1088"><path id="SvgjsPath1089" d="M560.5 598L558.5 275" stroke="#323232" stroke-width="2" fill="none" marker-start="url(#SvgjsMarker1090)"></path></g><g id="SvgjsG1092" transform="translate(36.5,502)"><path id="SvgjsPath1093" d="M 0 4Q 0 0 4 0L 248 0Q 252 0 252 4L 252 66Q 252 70 248 70L 4 70Q 0 70 0 66Z" stroke="rgba(50,50,50,1)" stroke-width="2" fill-opacity="1" fill="#ffccff"></path><g id="SvgjsG1094"><text id="SvgjsText1095" font-family="微软雅黑" text-anchor="middle" font-size="20px" width="232px" fill="#323232" font-weight="400" align="middle" anchor="middle" family="微软雅黑" size="20px" weight="400" font-style="" opacity="1" y="7" transform="rotate(0)"><tspan id="SvgjsTspan1096" dy="25" x="126"><tspan id="SvgjsTspan1097" style="text-decoration:;">视图</tspan></tspan><tspan id="SvgjsTspan1098" dy="25" x="126"><tspan id="SvgjsTspan1099" style="text-decoration:;">Jsp、freemaker</tspan></tspan></text></g></g><g id="SvgjsG1100"><path id="SvgjsPath1101" d="M490.5 276L122 502" stroke="#323232" stroke-width="2" fill="none" marker-end="url(#SvgjsMarker1102)"></path></g><g id="SvgjsG1104" transform="translate(467,25)"><path id="SvgjsPath1105" d="M 0 0L 211 0L 227 16L 227 70L 0 70L 0 0Z" stroke="none" fill-opacity="1" fill="#ffffaa"></path><path id="SvgjsPath1106" d="M 211 0L 211 16L 227 16Z" stroke="none" fill-opacity="1" fill="#cdcdcd"></path><path id="SvgjsPath1107" d="M 0 0L 211 0L 227 16L 227 70L 0 70L 0 0Z" stroke="none" fill="none"></path><g id="SvgjsG1108"><text id="SvgjsText1109" font-family="微软雅黑" text-anchor="start" font-size="16px" width="207px" fill="#323232" font-weight="400" align="middle" anchor="start" family="微软雅黑" size="16px" weight="400" font-style="" opacity="1" y="2.6" transform="rotate(0)"><tspan id="SvgjsTspan1110" dy="20" x="10"><tspan id="SvgjsTspan1111" style="text-decoration:;">DispatcherServlet：接收请</tspan></tspan><tspan id="SvgjsTspan1112" dy="20" x="10"><tspan id="SvgjsTspan1113" style="text-decoration:;">求、响应结果。减少了其他</tspan></tspan><tspan id="SvgjsTspan1114" dy="20" x="10"><tspan id="SvgjsTspan1115" style="text-decoration:;">组件之间的耦合度</tspan></tspan></text></g></g><g id="SvgjsG1116"><path id="SvgjsPath1117" d="M580.5 206L580.5 151.5L580.5 151.5L580.5 95" stroke-dasharray="3,3" stroke="#323232" stroke-width="2" fill="none"></path></g><g id="SvgjsG1118" transform="translate(969,36)"><path id="SvgjsPath1119" d="M 0 0L 211 0L 227 16L 227 70L 0 70L 0 0Z" stroke="none" fill-opacity="1" fill="#ffffaa"></path><path id="SvgjsPath1120" d="M 211 0L 211 16L 227 16Z" stroke="none" fill-opacity="1" fill="#cdcdcd"></path><path id="SvgjsPath1121" d="M 0 0L 211 0L 227 16L 227 70L 0 70L 0 0Z" stroke="none" fill="none"></path><g id="SvgjsG1122"><text id="SvgjsText1123" font-family="微软雅黑" text-anchor="start" font-size="16px" width="207px" fill="#323232" font-weight="400" align="middle" anchor="start" family="微软雅黑" size="16px" weight="400" font-style="" opacity="1" y="12.6" transform="rotate(0)"><tspan id="SvgjsTspan1124" dy="20" x="10"><tspan id="SvgjsTspan1125" style="text-decoration:;">根据URL去匹配XML文件或</tspan></tspan><tspan id="SvgjsTspan1126" dy="20" x="10"><tspan id="SvgjsTspan1127" style="text-decoration:;">者注解，查找对应的Handler</tspan></tspan></text></g></g><g id="SvgjsG1128"><path id="SvgjsPath1129" d="M1082.5 106L1082.5 157L1082.5 157L1082.5 206" stroke-dasharray="3,3" stroke="#323232" stroke-width="2" fill="none"></path></g><g id="SvgjsG1130" transform="translate(951.5,758)"><path id="SvgjsPath1131" d="M 0 0L 246 0L 262 16L 262 85L 0 85L 0 0Z" stroke="none" fill-opacity="1" fill="#ffffaa"></path><path id="SvgjsPath1132" d="M 246 0L 246 16L 262 16Z" stroke="none" fill-opacity="1" fill="#cdcdcd"></path><path id="SvgjsPath1133" d="M 0 0L 246 0L 262 16L 262 85L 0 85L 0 0Z" stroke="none" fill="none"></path><g id="SvgjsG1134"><text id="SvgjsText1135" font-family="微软雅黑" text-anchor="middle" font-size="16px" width="242px" fill="#323232" font-weight="400" align="middle" anchor="middle" family="微软雅黑" size="16px" weight="400" font-style="" opacity="1" y="30.1" transform="rotate(0)"><tspan id="SvgjsTspan1136" dy="20" x="131"><tspan id="SvgjsTspan1137" style="text-decoration:;">按照特定的规则去执行Handler</tspan></tspan></text></g></g><g id="SvgjsG1138"><path id="SvgjsPath1139" d="M1082.5 668L1082.5 713L1082.5 713L1082.5 758" stroke-dasharray="3,3" stroke="#323232" stroke-width="2" fill="none"></path></g><g id="SvgjsG1140" transform="translate(254,171)"><path id="SvgjsPath1141" d="M 0 17C 0 -5.666666666666667 35 -5.666666666666667 35 17C 35 39.666666666666664 0 39.666666666666664 0 17Z" stroke="rgba(50,50,50,1)" stroke-width="2" fill-opacity="1" fill="#ffcccc"></path><g id="SvgjsG1142"><text id="SvgjsText1143" font-family="微软雅黑" text-anchor="middle" font-size="16px" width="15px" fill="#323232" font-weight="400" align="middle" anchor="middle" family="微软雅黑" size="16px" weight="400" font-style="" opacity="1" y="4.6" transform="rotate(0)"><tspan id="SvgjsTspan1144" dy="20" x="17.5"><tspan id="SvgjsTspan1145" style="text-decoration:;">1</tspan></tspan></text></g></g><g id="SvgjsG1146" transform="translate(296.5,168)"><path id="SvgjsPath1147" d="M 0 0L 120 0L 120 40L 0 40Z" stroke="none" fill="none"></path><g id="SvgjsG1148"><text id="SvgjsText1149" font-family="微软雅黑" text-anchor="start" font-size="16px" width="120px" fill="#323232" font-weight="400" align="middle" anchor="start" family="微软雅黑" size="16px" weight="400" font-style="" opacity="1" y="7.6" transform="rotate(0)"><tspan id="SvgjsTspan1150" dy="20" x="0"><tspan id="SvgjsTspan1151" style="text-decoration:;">请求URL</tspan></tspan></text></g></g><g id="SvgjsG1152" transform="translate(747,171)"><path id="SvgjsPath1153" d="M 0 17C 0 -5.666666666666667 35 -5.666666666666667 35 17C 35 39.666666666666664 0 39.666666666666664 0 17Z" stroke="rgba(50,50,50,1)" stroke-width="2" fill-opacity="1" fill="#ffcccc"></path><g id="SvgjsG1154"><text id="SvgjsText1155" font-family="微软雅黑" text-anchor="middle" font-size="16px" width="15px" fill="#323232" font-weight="400" align="middle" anchor="middle" family="微软雅黑" size="16px" weight="400" font-style="" opacity="1" y="4.6" transform="rotate(0)"><tspan id="SvgjsTspan1156" dy="20" x="17.5"><tspan id="SvgjsTspan1157" style="text-decoration:;">2</tspan></tspan></text></g></g><g id="SvgjsG1158" transform="translate(793,168)"><path id="SvgjsPath1159" d="M 0 0L 120 0L 120 40L 0 40Z" stroke="none" fill="none"></path><g id="SvgjsG1160"><text id="SvgjsText1161" font-family="微软雅黑" text-anchor="start" font-size="16px" width="120px" fill="#323232" font-weight="400" align="middle" anchor="start" family="微软雅黑" size="16px" weight="400" font-style="" opacity="1" y="7.6" transform="rotate(0)"><tspan id="SvgjsTspan1162" dy="20" x="0"><tspan id="SvgjsTspan1163" style="text-decoration:;">查找handler</tspan></tspan></text></g></g><g id="SvgjsG1164" transform="translate(747,295)"><path id="SvgjsPath1165" d="M 0 17C 0 -5.666666666666667 35 -5.666666666666667 35 17C 35 39.666666666666664 0 39.666666666666664 0 17Z" stroke="rgba(50,50,50,1)" stroke-width="2" fill-opacity="1" fill="#ffcccc"></path><g id="SvgjsG1166"><text id="SvgjsText1167" font-family="微软雅黑" text-anchor="middle" font-size="16px" width="15px" fill="#323232" font-weight="400" align="middle" anchor="middle" family="微软雅黑" size="16px" weight="400" font-style="" opacity="1" y="4.6" transform="rotate(0)"><tspan id="SvgjsTspan1168" dy="20" x="17.5"><tspan id="SvgjsTspan1169" style="text-decoration:;">3</tspan></tspan></text></g></g><g id="SvgjsG1170" transform="translate(793,269.5)"><path id="SvgjsPath1171" d="M 0 0L 281 0L 281 85L 0 85Z" stroke="none" fill="none"></path><g id="SvgjsG1172"><text id="SvgjsText1173" font-family="微软雅黑" text-anchor="start" font-size="16px" width="281px" fill="#323232" font-weight="400" align="middle" anchor="start" family="微软雅黑" size="16px" weight="400" font-style="" opacity="1" y="30.1" transform="rotate(0)"><tspan id="SvgjsTspan1174" dy="20" x="0"><tspan id="SvgjsTspan1175" style="text-decoration:;">返回执行链HandlerExecutionChain</tspan></tspan></text></g></g><g id="SvgjsG1176" transform="translate(1260.5,277)"><path id="SvgjsPath1177" d="M 0 0L 275 0L 291 16L 291 70L 0 70L 0 0Z" stroke="none" fill-opacity="1" fill="#ffffaa"></path><path id="SvgjsPath1178" d="M 275 0L 275 16L 291 16Z" stroke="none" fill-opacity="1" fill="#cdcdcd"></path><path id="SvgjsPath1179" d="M 0 0L 275 0L 291 16L 291 70L 0 70L 0 0Z" stroke="none" fill="none"></path><g id="SvgjsG1180"><text id="SvgjsText1181" font-family="微软雅黑" text-anchor="start" font-size="13px" width="271px" fill="#323232" font-weight="400" align="middle" anchor="start" family="微软雅黑" size="13px" weight="400" font-style="" opacity="1" y="17.05" transform="rotate(0)"><tspan id="SvgjsTspan1182" dy="16" x="10"><tspan id="SvgjsTspan1183" style="text-decoration:;">HandlerExecutionChain对象包含了拦截器数</tspan></tspan><tspan id="SvgjsTspan1184" dy="16" x="10"><tspan id="SvgjsTspan1185" style="text-decoration:;">组、拦截器列表和处理器对象</tspan></tspan></text></g></g><g id="SvgjsG1186"><path id="SvgjsPath1187" d="M1074 312L1167 312L1167 312L1260.5 312" stroke-dasharray="3,3" stroke="#323232" stroke-width="2" fill="none"></path></g><g id="SvgjsG1188" transform="translate(781,381)"><path id="SvgjsPath1189" d="M 0 17C 0 -5.666666666666667 35 -5.666666666666667 35 17C 35 39.666666666666664 0 39.666666666666664 0 17Z" stroke="rgba(50,50,50,1)" stroke-width="2" fill-opacity="1" fill="#ffcccc"></path><g id="SvgjsG1190"><text id="SvgjsText1191" font-family="微软雅黑" text-anchor="middle" font-size="16px" width="15px" fill="#323232" font-weight="400" align="middle" anchor="middle" family="微软雅黑" size="16px" weight="400" font-style="" opacity="1" y="4.6" transform="rotate(0)"><tspan id="SvgjsTspan1192" dy="20" x="17.5"><tspan id="SvgjsTspan1193" style="text-decoration:;">4</tspan></tspan></text></g></g><g id="SvgjsG1194" transform="translate(827,355.5)"><path id="SvgjsPath1195" d="M 0 0L 281 0L 281 85L 0 85Z" stroke="none" fill="none"></path><g id="SvgjsG1196"><text id="SvgjsText1197" font-family="微软雅黑" text-anchor="start" font-size="16px" width="281px" fill="#323232" font-weight="400" align="middle" anchor="start" family="微软雅黑" size="16px" weight="400" font-style="" opacity="1" y="30.1" transform="rotate(0)"><tspan id="SvgjsTspan1198" dy="20" x="0"><tspan id="SvgjsTspan1199" style="text-decoration:;">请求适配器执行</tspan></tspan></text></g></g><g id="SvgjsG1200" transform="translate(667,528)"><path id="SvgjsPath1201" d="M 0 17C 0 -5.666666666666667 35 -5.666666666666667 35 17C 35 39.666666666666664 0 39.666666666666664 0 17Z" stroke="rgba(50,50,50,1)" stroke-width="2" fill-opacity="1" fill="#ffcccc"></path><g id="SvgjsG1202"><text id="SvgjsText1203" font-family="微软雅黑" text-anchor="middle" font-size="16px" width="15px" fill="#323232" font-weight="400" align="middle" anchor="middle" family="微软雅黑" size="16px" weight="400" font-style="" opacity="1" y="4.6" transform="rotate(0)"><tspan id="SvgjsTspan1204" dy="20" x="17.5"><tspan id="SvgjsTspan1205" style="text-decoration:;">7</tspan></tspan></text></g></g><g id="SvgjsG1206" transform="translate(714,502.5)"><path id="SvgjsPath1207" d="M 0 0L 169 0L 169 85L 0 85Z" stroke="none" fill="none"></path><g id="SvgjsG1208"><text id="SvgjsText1209" font-family="微软雅黑" text-anchor="start" font-size="16px" width="169px" fill="#323232" font-weight="400" align="middle" anchor="start" family="微软雅黑" size="16px" weight="400" font-style="" opacity="1" y="30.1" transform="rotate(0)"><tspan id="SvgjsTspan1210" dy="20" x="0"><tspan id="SvgjsTspan1211" style="text-decoration:;">返回ModelAndView</tspan></tspan></text></g></g><g id="SvgjsG1212" transform="translate(575.75,469)"><path id="SvgjsPath1213" d="M 0 17C 0 -5.666666666666667 35 -5.666666666666667 35 17C 35 39.666666666666664 0 39.666666666666664 0 17Z" stroke="rgba(50,50,50,1)" stroke-width="2" fill-opacity="1" fill="#ffcccc"></path><g id="SvgjsG1214"><text id="SvgjsText1215" font-family="微软雅黑" text-anchor="middle" font-size="16px" width="15px" fill="#323232" font-weight="400" align="middle" anchor="middle" family="微软雅黑" size="16px" weight="400" font-style="" opacity="1" y="4.6" transform="rotate(0)"><tspan id="SvgjsTspan1216" dy="20" x="17.5"><tspan id="SvgjsTspan1217" style="text-decoration:;">8</tspan></tspan></text></g></g><g id="SvgjsG1218" transform="translate(623.75,443.5)"><path id="SvgjsPath1219" d="M 0 0L 169 0L 169 85L 0 85Z" stroke="none" fill="none"></path><g id="SvgjsG1220"><text id="SvgjsText1221" font-family="微软雅黑" text-anchor="start" font-size="16px" width="169px" fill="#323232" font-weight="400" align="middle" anchor="start" family="微软雅黑" size="16px" weight="400" font-style="" opacity="1" y="30.1" transform="rotate(0)"><tspan id="SvgjsTspan1222" dy="20" x="0"><tspan id="SvgjsTspan1223" style="text-decoration:;">请求视图解析</tspan></tspan></text></g></g><g id="SvgjsG1224" transform="translate(339,488)"><path id="SvgjsPath1225" d="M 0 17C 0 -5.666666666666667 35 -5.666666666666667 35 17C 35 39.666666666666664 0 39.666666666666664 0 17Z" stroke="rgba(50,50,50,1)" stroke-width="2" fill-opacity="1" fill="#ffcccc"></path><g id="SvgjsG1226"><text id="SvgjsText1227" font-family="微软雅黑" text-anchor="middle" font-size="16px" width="15px" fill="#323232" font-weight="400" align="middle" anchor="middle" family="微软雅黑" size="16px" weight="400" font-style="" opacity="1" y="4.6" transform="rotate(0)"><tspan id="SvgjsTspan1228" dy="20" x="17.5"><tspan id="SvgjsTspan1229" style="text-decoration:;">9</tspan></tspan></text></g></g><g id="SvgjsG1230" transform="translate(386,462.5)"><path id="SvgjsPath1231" d="M 0 0L 169 0L 169 85L 0 85Z" stroke="none" fill="none"></path><g id="SvgjsG1232"><text id="SvgjsText1233" font-family="微软雅黑" text-anchor="start" font-size="16px" width="169px" fill="#323232" font-weight="400" align="middle" anchor="start" family="微软雅黑" size="16px" weight="400" font-style="" opacity="1" y="30.1" transform="rotate(0)"><tspan id="SvgjsTspan1234" dy="20" x="0"><tspan id="SvgjsTspan1235" style="text-decoration:;">返回ModelAndView</tspan></tspan></text></g></g><g id="SvgjsG1236" transform="translate(939,528)"><path id="SvgjsPath1237" d="M 0 17C 0 -5.666666666666667 35 -5.666666666666667 35 17C 35 39.666666666666664 0 39.666666666666664 0 17Z" stroke="rgba(50,50,50,1)" stroke-width="2" fill-opacity="1" fill="#ffcccc"></path><g id="SvgjsG1238"><text id="SvgjsText1239" font-family="微软雅黑" text-anchor="middle" font-size="16px" width="15px" fill="#323232" font-weight="400" align="middle" anchor="middle" family="微软雅黑" size="16px" weight="400" font-style="" opacity="1" y="4.6" transform="rotate(0)"><tspan id="SvgjsTspan1240" dy="20" x="17.5"><tspan id="SvgjsTspan1241" style="text-decoration:;">5</tspan></tspan></text></g></g><g id="SvgjsG1242" transform="translate(987,502.5)"><path id="SvgjsPath1243" d="M 0 0L 169 0L 169 85L 0 85Z" stroke="none" fill="none"></path><g id="SvgjsG1244"><text id="SvgjsText1245" font-family="微软雅黑" text-anchor="start" font-size="16px" width="169px" fill="#323232" font-weight="400" align="middle" anchor="start" family="微软雅黑" size="16px" weight="400" font-style="" opacity="1" y="30.1" transform="rotate(0)"><tspan id="SvgjsTspan1246" dy="20" x="0"><tspan id="SvgjsTspan1247" style="text-decoration:;">执行</tspan></tspan></text></g></g><g id="SvgjsG1248" transform="translate(1155.5,528)"><path id="SvgjsPath1249" d="M 0 17C 0 -5.666666666666667 35 -5.666666666666667 35 17C 35 39.666666666666664 0 39.666666666666664 0 17Z" stroke="rgba(50,50,50,1)" stroke-width="2" fill-opacity="1" fill="#ffcccc"></path><g id="SvgjsG1250"><text id="SvgjsText1251" font-family="微软雅黑" text-anchor="middle" font-size="16px" width="15px" fill="#323232" font-weight="400" align="middle" anchor="middle" family="微软雅黑" size="16px" weight="400" font-style="" opacity="1" y="4.6" transform="rotate(0)"><tspan id="SvgjsTspan1252" dy="20" x="17.5"><tspan id="SvgjsTspan1253" style="text-decoration:;">6</tspan></tspan></text></g></g><g id="SvgjsG1254" transform="translate(1203.5,502.5)"><path id="SvgjsPath1255" d="M 0 0L 169 0L 169 85L 0 85Z" stroke="none" fill="none"></path><g id="SvgjsG1256"><text id="SvgjsText1257" font-family="微软雅黑" text-anchor="start" font-size="16px" width="169px" fill="#323232" font-weight="400" align="middle" anchor="start" family="微软雅黑" size="16px" weight="400" font-style="" opacity="1" y="30.1" transform="rotate(0)"><tspan id="SvgjsTspan1258" dy="20" x="0"><tspan id="SvgjsTspan1259" style="text-decoration:;">返回ModelAndView</tspan></tspan></text></g></g><g id="SvgjsG1260" transform="translate(25,335)"><path id="SvgjsPath1261" d="M 0 17C 0 -5.666666666666667 47 -5.666666666666667 47 17C 47 39.666666666666664 0 39.666666666666664 0 17Z" stroke="rgba(50,50,50,1)" stroke-width="2" fill-opacity="1" fill="#ffcccc"></path><g id="SvgjsG1262"><text id="SvgjsText1263" font-family="微软雅黑" text-anchor="middle" font-size="16px" width="27px" fill="#323232" font-weight="400" align="middle" anchor="middle" family="微软雅黑" size="16px" weight="400" font-style="" opacity="1" y="4.6" transform="rotate(0)"><tspan id="SvgjsTspan1264" dy="20" x="23.5"><tspan id="SvgjsTspan1265" style="text-decoration:;">10</tspan></tspan></text></g></g><g id="SvgjsG1266" transform="translate(75,322)"><path id="SvgjsPath1267" d="M 0 0L 291 0L 291 60L 0 60Z" stroke="none" fill="none"></path><g id="SvgjsG1268"><text id="SvgjsText1269" font-family="微软雅黑" text-anchor="start" font-size="16px" width="291px" fill="#323232" font-weight="400" align="middle" anchor="start" family="微软雅黑" size="16px" weight="400" font-style="" opacity="1" y="17.6" transform="rotate(0)"><tspan id="SvgjsTspan1270" dy="20" x="0"><tspan id="SvgjsTspan1271" style="text-decoration:;">视图渲染，将模型数据填充到request域</tspan></tspan></text></g></g><g id="SvgjsG1272" transform="translate(233.75,263)"><path id="SvgjsPath1273" d="M 0 17C 0 -5.666666666666667 47 -5.666666666666667 47 17C 47 39.666666666666664 0 39.666666666666664 0 17Z" stroke="rgba(50,50,50,1)" stroke-width="2" fill-opacity="1" fill="#ffcccc"></path><g id="SvgjsG1274"><text id="SvgjsText1275" font-family="微软雅黑" text-anchor="middle" font-size="16px" width="27px" fill="#323232" font-weight="400" align="middle" anchor="middle" family="微软雅黑" size="16px" weight="400" font-style="" opacity="1" y="4.6" transform="rotate(0)"><tspan id="SvgjsTspan1276" dy="20" x="23.5"><tspan id="SvgjsTspan1277" style="text-decoration:;">11</tspan></tspan></text></g></g><g id="SvgjsG1278" transform="translate(285.625,250)"><path id="SvgjsPath1279" d="M 0 0L 141.75 0L 141.75 60L 0 60Z" stroke="none" fill="none"></path><g id="SvgjsG1280"><text id="SvgjsText1281" font-family="微软雅黑" text-anchor="start" font-size="16px" width="142px" fill="#323232" font-weight="400" align="middle" anchor="start" family="微软雅黑" size="16px" weight="400" font-style="" opacity="1" y="17.6" transform="rotate(0)"><tspan id="SvgjsTspan1282" dy="20" x="0"><tspan id="SvgjsTspan1283" style="text-decoration:;">response响应</tspan></tspan></text></g></g><g id="SvgjsG1284" transform="translate(353.25,781)"><path id="SvgjsPath1285" d="M 0 0L 294.5 0L 310.5 16L 310.5 107L 0 107L 0 0Z" stroke="none" fill-opacity="1" fill="#ffffaa"></path><path id="SvgjsPath1286" d="M 294.5 0L 294.5 16L 310.5 16Z" stroke="none" fill-opacity="1" fill="#cdcdcd"></path><path id="SvgjsPath1287" d="M 0 0L 294.5 0L 310.5 16L 310.5 107L 0 107L 0 0Z" stroke="none" fill="none"></path><g id="SvgjsG1288"><text id="SvgjsText1289" font-family="微软雅黑" text-anchor="start" font-size="13px" width="291px" fill="#323232" font-weight="400" align="middle" anchor="start" family="微软雅黑" size="13px" weight="400" font-style="" opacity="1" y="19.55" transform="rotate(0)"><tspan id="SvgjsTspan1290" dy="16" x="10"><tspan id="SvgjsTspan1291" style="text-decoration:;">写了@ResponseBody或者@RestController（包</tspan></tspan><tspan id="SvgjsTspan1292" dy="16" x="10"><tspan id="SvgjsTspan1293" style="text-decoration:;">含了@ResponseBody）则视图解析器不会起作</tspan></tspan><tspan id="SvgjsTspan1294" dy="16" x="10"><tspan id="SvgjsTspan1295" style="text-decoration:;">用，直接返回json。加@ResponseBody将对象序</tspan></tspan><tspan id="SvgjsTspan1296" dy="16" x="10"><tspan id="SvgjsTspan1297" style="text-decoration:;">列化成json并放到返回体中。</tspan></tspan></text></g></g><g id="SvgjsG1298"><path id="SvgjsPath1299" d="M508.5 668L508.5 724.5L508.5 724.5L508.5 781" stroke-dasharray="3,3" stroke="#323232" stroke-width="2" fill="none"></path></g></svg>